<svg width="100%" style="" viewBox="0 0 303 400" fill="currentColor" xmlns="http://www.w3.org/2000/svg">
    <style>
        path {
            fill: #000
        }

        @media (prefers-color-scheme: dark) {
            path {
                fill: #fff;
            }
        }
    </style>
    <path
        d="M167.683 0C192.951 0 213.05 3.83136 227.98 11.4942C245.973 20.6897 259.756 33.3333 269.327 49.4253C279.28 65.5173 284.258 83.5245 284.258 103.448C284.258 122.222 279.28 139.655 269.327 155.747C259.373 171.456 245.782 183.908 228.555 193.103C249.228 200.383 266.647 213.027 280.812 231.034C294.977 249.042 302.059 269.349 302.059 291.954C302.059 311.878 296.891 330.268 286.555 347.126C276.601 363.602 263.201 376.628 246.357 386.207C237.934 390.805 228.555 394.253 218.218 396.552C207.881 398.851 194.099 400 176.871 400H0V0H167.683Z"
        fill="currentColor" />
</svg>