<svg width="100%" viewBox="0 0 512 512" fill="white" xmlns="http://www.w3.org/2000/svg">
    <path fill-rule="evenodd" clip-rule="evenodd" d="M511.979 259.179C510.933 340.971 471.595 413.269 411.584 459.243C369.067 491.883 315.904 511.488 258.027 512C120.128 513.216 0.938667 403.051 0 256C84.608 278.741 163.883 213.483 128 128C227.584 141.973 274.325 77.0347 257.643 0C401.088 1.36533 513.621 118.229 511.979 259.179ZM179.691 171.221C178.304 243.605 119.936 296.405 47.808 302.763C69.312 398.528 154.795 469.312 256 469.312C368.256 469.312 460.288 382.443 468.693 272.427C476.565 169.643 409.92 72.8107 302.379 47.7013C296.469 109.739 251.584 161.984 179.691 171.221ZM288 362.667C305.664 362.667 320 377.003 320 394.667C320 412.331 305.664 426.667 288 426.667C270.336 426.667 256 412.331 256 394.667C256 377.003 270.336 362.667 288 362.667ZM170.667 301.803C194.219 301.803 213.333 320.917 213.333 344.469C213.333 368.021 194.219 387.136 170.667 387.136C147.115 387.136 128 368.021 128 344.469C128 320.917 147.115 301.803 170.667 301.803ZM384 256C407.552 256 426.667 275.115 426.667 298.667C426.667 322.219 407.552 341.333 384 341.333C360.448 341.333 341.333 322.219 341.333 298.667C341.333 275.115 360.448 256 384 256ZM277.333 256C289.109 256 298.667 265.557 298.667 277.333C298.667 289.109 289.109 298.667 277.333 298.667C265.557 298.667 256 289.109 256 277.333C256 265.557 265.557 256 277.333 256ZM330.667 149.333C348.331 149.333 362.667 163.669 362.667 181.333C362.667 198.997 348.331 213.333 330.667 213.333C313.003 213.333 298.667 198.997 298.667 181.333C298.667 163.669 313.003 149.333 330.667 149.333ZM64 149.333C75.776 149.333 85.3333 158.891 85.3333 170.667C85.3333 182.443 75.776 192 64 192C52.224 192 42.6667 182.443 42.6667 170.667C42.6667 158.891 52.224 149.333 64 149.333ZM32 64C49.664 64 64 78.336 64 96C64 113.664 49.664 128 32 128C14.336 128 0 113.664 0 96C0 78.336 14.336 64 32 64ZM160 21.3333C177.664 21.3333 192 35.6693 192 53.3333C192 70.9973 177.664 85.3333 160 85.3333C142.336 85.3333 128 70.9973 128 53.3333C128 35.6693 142.336 21.3333 160 21.3333ZM85.3333 0C97.1093 0 106.667 9.55733 106.667 21.3333C106.667 33.1093 97.1093 42.6667 85.3333 42.6667C73.5573 42.6667 64 33.1093 64 21.3333C64 9.55733 73.5573 0 85.3333 0Z" fill="white"/>
    </svg>