<svg width="100%" style="" viewBox="0 0 414 47" fill="currentColor" xmlns="http://www.w3.org/2000/svg">
    <path
        d="M18.816 1.45601C21.632 1.45601 23.872 1.88267 25.536 2.736C27.5413 3.76001 29.0773 5.16801 30.144 6.96001C31.2533 8.75201 31.808 10.7573 31.808 12.976C31.808 15.0667 31.2533 17.008 30.144 18.8C29.0347 20.5493 27.52 21.936 25.6 22.96C27.904 23.7707 29.8453 25.1787 31.424 27.184C33.0027 29.1893 33.792 31.4507 33.792 33.968C33.792 36.1867 33.216 38.2347 32.064 40.112C30.9547 41.9467 29.4613 43.3973 27.584 44.464C26.6453 44.976 25.6 45.36 24.448 45.616C23.296 45.872 21.76 46 19.84 46H0.127991V1.45601H18.816Z"
        fill="currentColor" />
    <path
        d="M61.839 1.45601H64.335L82.639 46H80.079L74.063 31.28H52.111L46.031 46H43.535L61.839 1.45601ZM53.071 28.976H73.103L63.055 4.52801L53.071 28.976Z"
        fill="currentColor" />
    <path
        d="M92.446 1.45601H94.814V28.976C94.814 31.792 95.518 34.3947 96.926 36.784C98.334 39.1733 100.233 41.072 102.622 42.48C105.011 43.888 107.614 44.592 110.43 44.592C113.246 44.592 115.849 43.888 118.238 42.48C120.627 41.072 122.526 39.1733 123.934 36.784C125.342 34.3947 126.046 31.792 126.046 28.976V1.45601H128.414V28.976C128.414 32.2187 127.603 35.2267 125.982 38C124.361 40.7307 122.163 42.9067 119.39 44.528C116.659 46.1493 113.673 46.96 110.43 46.96C107.187 46.96 104.179 46.1493 101.406 44.528C98.6753 42.9067 96.4993 40.7307 94.878 38C93.2567 35.2267 92.446 32.2187 92.446 28.976V1.45601Z"
        fill="currentColor" />
    <path
        d="M143.533 1.45601V31.6L173.741 1.45601H177.069L158.445 20.016L177.005 46H174.189L156.781 21.68L143.533 34.928V46H141.165V1.45601H143.533Z"
        fill="currentColor" />
    <path
        d="M203.964 1.45601H206.46L224.764 46H222.204L216.188 31.28H194.236L188.156 46H185.66L203.964 1.45601ZM195.196 28.976H215.228L205.18 4.52801L195.196 28.976Z"
        fill="currentColor" />
    <path
        d="M253.515 24.688C249.888 23.9627 246.923 23.1733 244.619 22.32C242.358 21.424 240.566 20.2293 239.243 18.736C237.963 17.2 237.323 15.2373 237.323 12.848C237.323 10.3733 237.963 8.19734 239.243 6.32001C240.566 4.44267 242.4 2.99201 244.747 1.96801C247.136 0.944007 249.888 0.432007 253.003 0.432007C255.99 0.432007 258.72 1.07201 261.195 2.35201C263.712 3.58934 265.696 5.33867 267.147 7.60001C268.598 9.86134 269.323 12.4427 269.323 15.344H266.955C266.955 12.8267 266.336 10.608 265.099 8.68801C263.862 6.76801 262.176 5.29601 260.043 4.27201C257.91 3.20534 255.542 2.672 252.939 2.672C250.635 2.672 248.48 3.03467 246.475 3.76001C244.47 4.48534 242.827 5.59467 241.547 7.08801C240.31 8.58134 239.691 10.4587 239.691 12.72C239.691 14.768 240.288 16.4107 241.483 17.648C242.678 18.8427 244.235 19.76 246.155 20.4C248.075 21.04 250.763 21.7227 254.219 22.448C257.718 23.1733 260.427 23.8773 262.347 24.56C264.31 25.2 265.952 26.288 267.275 27.824C268.64 29.36 269.323 31.5147 269.323 34.288C269.323 37.0613 268.576 39.408 267.083 41.328C265.632 43.2053 263.691 44.6133 261.259 45.552C258.827 46.4907 256.182 46.96 253.323 46.96C249.782 46.96 246.667 46.2987 243.979 44.976C241.291 43.6533 239.222 41.7973 237.771 39.408C236.363 36.976 235.659 34.2027 235.659 31.088H238.027C238.027 33.8187 238.624 36.208 239.819 38.256C241.056 40.304 242.827 41.904 245.131 43.056C247.435 44.1653 250.166 44.72 253.323 44.72C257.248 44.72 260.491 43.7813 263.051 41.904C265.654 40.0267 266.955 37.4667 266.955 34.224C266.955 32.0053 266.4 30.2987 265.291 29.104C264.182 27.9093 262.774 27.056 261.067 26.544C259.403 25.9893 256.886 25.3707 253.515 24.688Z"
        fill="currentColor" />
    <path d="M317.914 1.45601V3.82401H301.082V46H298.778V3.82401H281.946V1.45601H317.914Z" fill="currentColor" />
    <path d="M331.945 1.45601H363.305V3.82401H334.313V21.872H359.529V24.24H334.313V43.632H363.305V46H331.945V1.45601Z"
        fill="currentColor" />
    <path d="M377.272 46V1.45601H379.768L410.872 31.664V1.45601H413.24V46H410.872V34.992L379.64 4.52801V46H377.272Z"
        fill="currentColor" />
</svg>